<?xml version="1.0" encoding="UTF-8"?>
<!-- Generator: Adobe Illustrator 16.0.4, SVG Export Plug-In . SVG Version: 6.00 Build 0)  -->
<!DOCTYPE svg PUBLIC "-//W3C//DTD SVG 1.1//EN" "http://www.w3.org/Graphics/SVG/1.1/DTD/svg11.dtd">
<svg version="1.1" id="Layer_1" xmlns="http://www.w3.org/2000/svg" xmlns:xlink="http://www.w3.org/1999/xlink" x="0px" y="0px" viewBox="0 272.5 800 250" enable-background="new 0 272.5 800 250" xml:space="preserve">
<g>
	<path d="M146.556,285.265c29.61,0,47.719,22.604,47.719,47.984c0,26.569-20.489,47.984-47.719,47.984   c-32.915,0-47.852-25.645-47.852-47.984C98.705,307.34,118.797,285.265,146.556,285.265z M146.424,375.945   c23.265,0,41.507-17.978,41.507-42.696c0-24.322-16.92-42.696-41.507-42.696c-23.265,0-41.375,17.713-41.375,42.696   C105.049,357.968,123.159,375.945,146.424,375.945z"/>
	<path d="M236.964,288.173c32.518,0,49.174,20.489,49.174,45.076c0,24.455-17.713,45.076-49.438,45.076h-28.288v-90.151H236.964z    M236.039,373.037c29.082,0,43.754-17.978,43.754-39.788c0-23.397-15.201-39.788-42.432-39.788h-23v79.576H236.039z"/>
	<path d="M349.052,293.461h-43.489v35.426h42.036v5.288h-42.036v38.863h44.943v5.288h-50.892v-90.151h49.438V293.461z"/>
	<path d="M454.929,332.72v0.793c0,25.645-17.713,47.72-45.737,47.72c-27.891,0-46.529-22.869-46.529-47.984   c0-26.305,19.696-47.984,46.397-47.984c20.093,0,35.822,11.632,41.903,25.248h-6.741c-5.155-11.236-19.432-19.96-34.897-19.96   c-23.794,0-40.317,18.771-40.317,41.771c0,26.438,17.449,43.622,40.317,43.622c21.942,0,38.069-16.391,39.523-37.938h-41.507   v-5.288H454.929z"/>
	<path d="M495.373,288.173h5.815l38.202,90.151h-6.213l-10.839-25.644h-48.381l-10.707,25.644h-6.08L495.373,288.173z    M476.205,347.393h43.887l-13.087-30.667c-2.247-5.155-6.477-15.862-8.592-21.546h-0.529c-2.379,5.948-6.741,17.184-8.988,22.472   L476.205,347.393z"/>
	<path d="M613.408,378.325h-6.874l-31.328-39.92H555.51v39.92h-6.08v-90.151h26.966c21.679,0,29.478,11.5,29.478,25.38   c0,13.219-9.253,22.868-24.058,24.586L613.408,378.325z M577.585,293.461H555.51v39.656h22.208   c14.408,0,21.811-8.989,21.811-19.563C599.528,300.599,591.729,293.461,577.585,293.461z"/>
	<path d="M652.001,288.173c32.519,0,49.174,20.489,49.174,45.076c0,24.455-17.713,45.076-49.438,45.076h-28.287v-90.151H652.001z    M651.076,373.037c29.081,0,43.754-17.978,43.754-39.788c0-23.397-15.202-39.788-42.433-39.788h-23v79.576H651.076z"/>
	<path d="M283.621,418.173h5.948v84.864h44.943v5.287h-50.892V418.173z"/>
	<path d="M378.789,418.173h5.816l38.202,90.151h-6.213l-10.84-25.645h-48.38l-10.707,25.645h-6.081L378.789,418.173z    M359.622,477.393h43.886l-13.086-30.667c-2.247-5.155-6.477-15.863-8.592-21.547h-0.529c-2.379,5.948-6.742,17.185-8.989,22.472   L359.622,477.393z"/>
	<path d="M476.472,446.328c-2.247-8.195-3.438-13.351-4.362-19.167h-0.265c-1.321,6.478-1.851,10.179-4.098,18.771l-16.127,62.393   h-5.419l-25.513-90.151h6.213l17.448,63.582c1.322,4.759,3.041,11.765,4.495,17.581h0.264c1.19-5.685,2.645-13.352,4.099-18.771   l16.126-62.393h5.42l16.92,63.317c1.983,7.535,3.04,12.426,4.098,17.846h0.265c0.926-4.495,3.437-14.013,4.494-17.714   l18.109-63.449h5.949l-26.174,90.151h-5.419L476.472,446.328z"/>
</g>
</svg>